<svg height="320" viewBox="0 0 900 320" width="900" xmlns="http://www.w3.org/2000/svg"><g fill="none" fill-rule="evenodd"><path d="m0 0h900v320h-900z" fill="#00a1d5"/><g fill="#fff" fill-rule="nonzero" transform="translate(396 106)"><path d="m79.2131646 86.1000936c1.5394611-1.4639512 4.0325274-1.469629 5.5778568 0l21.3187006 20.2492744c1.539461 1.463951 1.029893 2.650632-1.122809 2.650632h-45.9686615c-2.1605272 0-2.6691165-1.181003-1.122809-2.650632z" fill-opacity=".4"/><path d="m1 107.705101 101.702591-102.705101c1.130887 1.15611666 2.062203 2.37298173 2.271796 3.41875068l3.916143 19.47985082c.441571 2.1947987-.492443 5.2582033-2.086778 6.8435606l-71.4103428 71.0545829c-1.5943352 1.583333-4.7087321 2.869032-6.9583014 2.869032l-25.75577445.334223c-1.12224102 0-1.08158994-.334223-1.67933335-1.294899z"/><path d="m0 106.201721v-25.099502c0-2.2615669 1.28184776-5.3988766 2.86144756-7.0038926l70.84076124-71.88874156c1.5806092-1.6039918 4.6348385-2.5432386 6.8230637-2.09973384l19.4215076 3.94237834c1.1031969.22431302 2.1902439.88393674 3.0532199 1.7668492l-101.9119434 103.18092146c-.67423173-.732346-1.0880566-1.715636-1.0880566-2.798279z" fill-opacity=".4"/></g></g></svg>