<svg height="100" viewBox="0 0 100 100" width="100" xmlns="http://www.w3.org/2000/svg"><g fill="none" fill-rule="evenodd"><circle cx="50" cy="50" fill="#00a1d5" r="50"/><g fill="#fff" fill-rule="nonzero" transform="translate(22 20)"><path d="m39.8017562 43.5500468c.7834135-.7319756 2.0521055-.7348145 2.8385054 0l10.8488349 10.1246373c.7834136.7319756.5241007 1.3253159-.5713842 1.3253159h-23.392909c-1.0994668 0-1.3582819-.5905014-.5713842-1.3253159z" fill-opacity=".4"/><path d="m.2393371 54.5161654 51.5298664-51.72639459c.5729892.58226657 1.0448606 1.19512846 1.1510558 1.72181951l1.9842004 9.81083158c.2237317 1.1053884-.2495071 2.6482414-1.0573122 3.4466907l-36.1816292 35.7859286c-.8078051.7974297-2.3857832 1.4449588-3.5255772 1.4449588l-13.04973263.1683282c-.56860822 0-.54801146-.1683282-.85087137-.6521628z"/><path d="m0 53.5880241v-12.664886c0-1.1411577.64598402-2.7242039 1.44201944-3.5340743l35.70002686-36.27413567c.7965441-.80935366 2.3357154-1.28328553 3.4384661-1.05949873l9.7874208 1.98927348c.5559532.11318547 1.1037679.44602312 1.5386627.89152941l-51.35827246 52.06376771c-.33977742-.3695325-.54832344-.865688-.54832344-1.4119759z" fill-opacity=".4"/></g></g></svg>